<svg width="153" height="27" viewBox="0 0 153 27" fill="none" xmlns="http://www.w3.org/2000/svg">
<path d="M4.10742 6.81836H1.88672V5.65234H4.10742C4.49414 5.65234 4.80664 5.58984 5.04492 5.46484C5.2832 5.33984 5.45703 5.16797 5.56641 4.94922C5.67969 4.72656 5.73633 4.47266 5.73633 4.1875C5.73633 3.91797 5.67969 3.66602 5.56641 3.43164C5.45703 3.19336 5.2832 3.00195 5.04492 2.85742C4.80664 2.71289 4.49414 2.64062 4.10742 2.64062H2.33789V10H0.867188V1.46875H4.10742C4.76758 1.46875 5.32812 1.58594 5.78906 1.82031C6.25391 2.05078 6.60742 2.37109 6.84961 2.78125C7.0918 3.1875 7.21289 3.65234 7.21289 4.17578C7.21289 4.72656 7.0918 5.19922 6.84961 5.59375C6.60742 5.98828 6.25391 6.29102 5.78906 6.50195C5.32812 6.71289 4.76758 6.81836 4.10742 6.81836ZM15.334 5.5V5.96875C15.334 6.61328 15.25 7.19141 15.082 7.70312C14.9141 8.21484 14.6738 8.65039 14.3613 9.00977C14.0527 9.36914 13.6816 9.64453 13.248 9.83594C12.8145 10.0234 12.334 10.1172 11.8066 10.1172C11.2832 10.1172 10.8047 10.0234 10.3711 9.83594C9.94141 9.64453 9.56836 9.36914 9.25195 9.00977C8.93555 8.65039 8.68945 8.21484 8.51367 7.70312C8.3418 7.19141 8.25586 6.61328 8.25586 5.96875V5.5C8.25586 4.85547 8.3418 4.2793 8.51367 3.77148C8.68555 3.25977 8.92773 2.82422 9.24023 2.46484C9.55664 2.10156 9.92969 1.82617 10.3594 1.63867C10.793 1.44727 11.2715 1.35156 11.7949 1.35156C12.3223 1.35156 12.8027 1.44727 13.2363 1.63867C13.6699 1.82617 14.043 2.10156 14.3555 2.46484C14.668 2.82422 14.9082 3.25977 15.0762 3.77148C15.248 4.2793 15.334 4.85547 15.334 5.5ZM13.8633 5.96875V5.48828C13.8633 5.01172 13.8164 4.5918 13.7227 4.22852C13.6328 3.86133 13.498 3.55469 13.3184 3.30859C13.1426 3.05859 12.9258 2.87109 12.668 2.74609C12.4102 2.61719 12.1191 2.55273 11.7949 2.55273C11.4707 2.55273 11.1816 2.61719 10.9277 2.74609C10.6738 2.87109 10.457 3.05859 10.2773 3.30859C10.1016 3.55469 9.9668 3.86133 9.87305 4.22852C9.7793 4.5918 9.73242 5.01172 9.73242 5.48828V5.96875C9.73242 6.44531 9.7793 6.86719 9.87305 7.23438C9.9668 7.60156 10.1035 7.91211 10.2832 8.16602C10.4668 8.41602 10.6855 8.60547 10.9395 8.73438C11.1934 8.85938 11.4824 8.92188 11.8066 8.92188C12.1348 8.92188 12.4258 8.85938 12.6797 8.73438C12.9336 8.60547 13.1484 8.41602 13.3242 8.16602C13.5 7.91211 13.6328 7.60156 13.7227 7.23438C13.8164 6.86719 13.8633 6.44531 13.8633 5.96875ZM16.8047 1.46875H19.8223C20.4707 1.46875 21.0234 1.56641 21.4805 1.76172C21.9375 1.95703 22.2871 2.24609 22.5293 2.62891C22.7754 3.00781 22.8984 3.47656 22.8984 4.03516C22.8984 4.46094 22.8203 4.83594 22.6641 5.16016C22.5078 5.48438 22.2871 5.75781 22.002 5.98047C21.7168 6.19922 21.377 6.36914 20.9824 6.49023L20.5371 6.70703H17.8242L17.8125 5.54102H19.8457C20.1973 5.54102 20.4902 5.47852 20.7246 5.35352C20.959 5.22852 21.1348 5.05859 21.252 4.84375C21.373 4.625 21.4336 4.37891 21.4336 4.10547C21.4336 3.80859 21.375 3.55078 21.2578 3.33203C21.1445 3.10938 20.9688 2.93945 20.7305 2.82227C20.4922 2.70117 20.1895 2.64062 19.8223 2.64062H18.2754V10H16.8047V1.46875ZM21.6738 10L19.6699 6.16797L21.2109 6.16211L23.2441 9.92383V10H21.6738ZM27.4746 1.46875V10H26.0156V1.46875H27.4746ZM30.1523 1.46875V2.64062H23.3613V1.46875H30.1523ZM34.0371 2.60547L31.4883 10H29.9473L33.1582 1.46875H34.1426L34.0371 2.60547ZM36.1699 10L33.6152 2.60547L33.5039 1.46875H34.4941L37.7168 10H36.1699ZM36.0469 6.83594V8.00195H31.4062V6.83594H36.0469ZM44.0156 8.83398V10H39.7324V8.83398H44.0156ZM40.1426 1.46875V10H38.6719V1.46875H40.1426ZM50.6191 10H48.7969L48.8086 8.83398H50.6191C51.1465 8.83398 51.5879 8.71875 51.9434 8.48828C52.3027 8.25781 52.5723 7.92773 52.752 7.49805C52.9355 7.06836 53.0273 6.55664 53.0273 5.96289V5.5C53.0273 5.03906 52.9746 4.63086 52.8691 4.27539C52.7676 3.91992 52.6152 3.62109 52.4121 3.37891C52.2129 3.13672 51.9668 2.95312 51.6738 2.82812C51.3848 2.70313 51.0508 2.64062 50.6719 2.64062H48.7617V1.46875H50.6719C51.2383 1.46875 51.7559 1.56445 52.2246 1.75586C52.6934 1.94336 53.0977 2.21484 53.4375 2.57031C53.7812 2.92578 54.0449 3.35156 54.2285 3.84766C54.4121 4.34375 54.5039 4.89844 54.5039 5.51172V5.96289C54.5039 6.57617 54.4121 7.13086 54.2285 7.62695C54.0449 8.12305 53.7812 8.54883 53.4375 8.9043C53.0938 9.25586 52.6836 9.52734 52.207 9.71875C51.7344 9.90625 51.2051 10 50.6191 10ZM49.6113 1.46875V10H48.1406V1.46875H49.6113ZM61.5645 8.83398V10H57.0352V8.83398H61.5645ZM57.4512 1.46875V10H55.9805V1.46875H57.4512ZM60.9727 5.03125V6.17969H57.0352V5.03125H60.9727ZM61.5352 1.46875V2.64062H57.0352V1.46875H61.5352ZM68.1094 8.83398V10H63.8262V8.83398H68.1094ZM64.2363 1.46875V10H62.7656V1.46875H64.2363ZM5.13428 21.0229H2.3584V19.5654H5.13428C5.61768 19.5654 6.0083 19.4873 6.30615 19.3311C6.604 19.1748 6.82129 18.96 6.95801 18.6865C7.09961 18.4082 7.17041 18.0908 7.17041 17.7344C7.17041 17.3975 7.09961 17.0825 6.95801 16.7896C6.82129 16.4917 6.604 16.2524 6.30615 16.0718C6.0083 15.8911 5.61768 15.8008 5.13428 15.8008H2.92236V25H1.08398V14.3359H5.13428C5.95947 14.3359 6.66016 14.4824 7.23633 14.7754C7.81738 15.0635 8.25928 15.4639 8.56201 15.9766C8.86475 16.4844 9.01611 17.0654 9.01611 17.7197C9.01611 18.4082 8.86475 18.999 8.56201 19.4922C8.25928 19.9854 7.81738 20.3638 7.23633 20.6274C6.66016 20.8911 5.95947 21.0229 5.13428 21.0229ZM13.7036 15.7568L10.5176 25H8.59131L12.605 14.3359H13.8354L13.7036 15.7568ZM16.3696 25L13.1763 15.7568L13.0371 14.3359H14.2749L18.3032 25H16.3696ZM16.2158 21.0449V22.5024H10.415V21.0449H16.2158ZM25.6787 21.5283H27.5098C27.4512 22.2266 27.2559 22.8491 26.9238 23.396C26.5918 23.938 26.1255 24.3652 25.5249 24.6777C24.9243 24.9902 24.1943 25.1465 23.335 25.1465C22.6758 25.1465 22.0825 25.0293 21.5552 24.7949C21.0278 24.5557 20.5762 24.2188 20.2002 23.7842C19.8242 23.3447 19.5361 22.8149 19.3359 22.1948C19.1406 21.5747 19.043 20.8813 19.043 20.1147V19.2285C19.043 18.4619 19.1431 17.7686 19.3433 17.1484C19.5483 16.5283 19.8413 15.9985 20.2222 15.5591C20.603 15.1147 21.0596 14.7754 21.5918 14.541C22.1289 14.3066 22.7319 14.1895 23.4009 14.1895C24.2505 14.1895 24.9683 14.3457 25.5542 14.6582C26.1401 14.9707 26.5942 15.4028 26.9165 15.9546C27.2437 16.5063 27.4438 17.1387 27.5171 17.8516H25.686C25.6372 17.3926 25.5298 16.9995 25.3638 16.6724C25.2026 16.3452 24.9634 16.0962 24.646 15.9253C24.3286 15.7495 23.9136 15.6616 23.4009 15.6616C22.981 15.6616 22.6147 15.7397 22.3022 15.896C21.9897 16.0522 21.7285 16.2817 21.5186 16.5845C21.3086 16.8872 21.1499 17.2607 21.0425 17.7051C20.9399 18.1445 20.8887 18.6475 20.8887 19.2139V20.1147C20.8887 20.6519 20.9351 21.1401 21.0278 21.5796C21.1255 22.0142 21.272 22.3877 21.4673 22.7002C21.6675 23.0127 21.9214 23.2544 22.229 23.4253C22.5366 23.5962 22.9053 23.6816 23.335 23.6816C23.8574 23.6816 24.2798 23.5986 24.6021 23.4326C24.9292 23.2666 25.1758 23.0249 25.3418 22.7075C25.5127 22.3853 25.625 21.9922 25.6787 21.5283ZM31.1426 14.3359V25H29.3042V14.3359H31.1426ZM40.4077 23.5425V25H34.7461V23.5425H40.4077ZM35.2661 14.3359V25H33.4277V14.3359H35.2661ZM39.668 18.7891V20.2246H34.7461V18.7891H39.668ZM40.3711 14.3359V15.8008H34.7461V14.3359H40.3711ZM50.3687 14.3359V25H48.5303L43.7476 17.3608V25H41.9092V14.3359H43.7476L48.5449 21.9897V14.3359H50.3687ZM56.7261 14.3359V25H54.9023V14.3359H56.7261ZM60.0732 14.3359V15.8008H51.5845V14.3359H60.0732ZM68.4595 23.5425V25H62.7979V23.5425H68.4595ZM63.3179 14.3359V25H61.4795V14.3359H63.3179ZM67.7197 18.7891V20.2246H62.7979V18.7891H67.7197ZM68.4229 14.3359V15.8008H62.7979V14.3359H68.4229Z" fill="white"/>
<line x1="73.0522" y1="1" x2="73.0522" y2="25" stroke="white"/>
<path d="M88.2637 16.9014H89.645C89.5327 18.002 89.2295 18.9528 88.7354 19.7539C88.2412 20.5475 87.5674 21.1577 86.7139 21.5845C85.8604 22.0112 84.8309 22.2246 83.6255 22.2246C82.6971 22.2246 81.8548 22.0487 81.0986 21.6968C80.3499 21.3449 79.7061 20.847 79.167 20.2031C78.6279 19.5518 78.2124 18.7731 77.9204 17.8672C77.6284 16.9613 77.4824 15.9543 77.4824 14.8462V12.8022C77.4824 11.6942 77.6284 10.6909 77.9204 9.79248C78.2124 8.88656 78.6317 8.10791 79.1782 7.45654C79.7248 6.80518 80.3799 6.30355 81.1436 5.95166C81.9072 5.59977 82.7682 5.42383 83.7266 5.42383C84.887 5.42383 85.8903 5.63721 86.7363 6.06396C87.5824 6.48324 88.2487 7.08968 88.7354 7.8833C89.2295 8.67692 89.5327 9.63525 89.645 10.7583H88.2637C88.1589 9.87484 87.9268 9.12614 87.5674 8.51221C87.208 7.89827 86.7101 7.43034 86.0737 7.1084C85.4448 6.77897 84.6624 6.61426 83.7266 6.61426C82.9629 6.61426 82.2816 6.76025 81.6826 7.05225C81.0837 7.34424 80.5745 7.76351 80.1553 8.31006C79.736 8.84912 79.4141 9.49674 79.1895 10.2529C78.9723 11.0091 78.8638 11.8514 78.8638 12.7798V14.8462C78.8638 15.7446 78.9686 16.5719 79.1782 17.3281C79.3879 18.0843 79.6948 18.7394 80.0991 19.2935C80.5109 19.8475 81.0125 20.278 81.604 20.585C82.1955 20.8919 82.8693 21.0454 83.6255 21.0454C84.5913 21.0454 85.3962 20.8919 86.04 20.585C86.6914 20.2705 87.1968 19.8063 87.5562 19.1924C87.9155 18.5785 88.1514 17.8148 88.2637 16.9014ZM104.009 12.9819V14.1611H94.0698V12.9819H104.009ZM94.3955 5.64844V22H93.0142V5.64844H94.3955ZM105.121 5.64844V22H103.739V5.64844H105.121ZM114.869 6.62549L109.208 22H107.771L113.948 5.64844H114.947L114.869 6.62549ZM120.012 22L114.341 6.62549L114.262 5.64844H115.262L121.45 22H120.012ZM119.001 16.2275V17.418H110.32V16.2275H119.001ZM133.927 16.9014H135.308C135.196 18.002 134.893 18.9528 134.398 19.7539C133.904 20.5475 133.23 21.1577 132.377 21.5845C131.523 22.0112 130.494 22.2246 129.289 22.2246C128.36 22.2246 127.518 22.0487 126.762 21.6968C126.013 21.3449 125.369 20.847 124.83 20.2031C124.291 19.5518 123.875 18.7731 123.583 17.8672C123.292 16.9613 123.146 15.9543 123.146 14.8462V12.8022C123.146 11.6942 123.292 10.6909 123.583 9.79248C123.875 8.88656 124.295 8.10791 124.841 7.45654C125.388 6.80518 126.043 6.30355 126.807 5.95166C127.57 5.59977 128.431 5.42383 129.39 5.42383C130.55 5.42383 131.553 5.63721 132.399 6.06396C133.245 6.48324 133.912 7.08968 134.398 7.8833C134.893 8.67692 135.196 9.63525 135.308 10.7583H133.927C133.822 9.87484 133.59 9.12614 133.23 8.51221C132.871 7.89827 132.373 7.43034 131.737 7.1084C131.108 6.77897 130.326 6.61426 129.39 6.61426C128.626 6.61426 127.945 6.76025 127.346 7.05225C126.747 7.34424 126.238 7.76351 125.818 8.31006C125.399 8.84912 125.077 9.49674 124.853 10.2529C124.635 11.0091 124.527 11.8514 124.527 12.7798V14.8462C124.527 15.7446 124.632 16.5719 124.841 17.3281C125.051 18.0843 125.358 18.7394 125.762 19.2935C126.174 19.8475 126.676 20.278 127.267 20.585C127.859 20.8919 128.532 21.0454 129.289 21.0454C130.254 21.0454 131.059 20.8919 131.703 20.585C132.354 20.2705 132.86 19.8063 133.219 19.1924C133.579 18.5785 133.814 17.8148 133.927 16.9014ZM150.75 12.9482V14.7002C150.75 15.8457 150.6 16.8826 150.301 17.811C150.009 18.7319 149.582 19.5218 149.021 20.1807C148.466 20.8395 147.8 21.3449 147.021 21.6968C146.243 22.0487 145.367 22.2246 144.394 22.2246C143.443 22.2246 142.574 22.0487 141.788 21.6968C141.009 21.3449 140.339 20.8395 139.778 20.1807C139.216 19.5218 138.782 18.7319 138.475 17.811C138.168 16.8826 138.015 15.8457 138.015 14.7002V12.9482C138.015 11.8027 138.164 10.7695 138.464 9.84863C138.771 8.92025 139.205 8.12663 139.767 7.46777C140.328 6.80892 140.998 6.30355 141.777 5.95166C142.556 5.59977 143.42 5.42383 144.371 5.42383C145.344 5.42383 146.22 5.59977 146.999 5.95166C147.778 6.30355 148.448 6.80892 149.009 7.46777C149.571 8.12663 150.001 8.92025 150.301 9.84863C150.6 10.7695 150.75 11.8027 150.75 12.9482ZM149.38 14.7002V12.9258C149.38 11.96 149.268 11.0915 149.043 10.3203C148.826 9.54915 148.5 8.8903 148.066 8.34375C147.639 7.7972 147.115 7.37793 146.494 7.08594C145.872 6.79395 145.165 6.64795 144.371 6.64795C143.6 6.64795 142.907 6.79395 142.293 7.08594C141.68 7.37793 141.155 7.7972 140.721 8.34375C140.294 8.8903 139.965 9.54915 139.733 10.3203C139.508 11.0915 139.396 11.96 139.396 12.9258V14.7002C139.396 15.6735 139.508 16.5495 139.733 17.3281C139.965 18.0993 140.298 18.7619 140.732 19.3159C141.167 19.8625 141.691 20.2817 142.305 20.5737C142.926 20.8657 143.622 21.0117 144.394 21.0117C145.195 21.0117 145.902 20.8657 146.516 20.5737C147.13 20.2817 147.65 19.8625 148.077 19.3159C148.504 18.7619 148.826 18.0993 149.043 17.3281C149.268 16.5495 149.38 15.6735 149.38 14.7002Z" fill="white"/>
</svg>
