<svg width="171" height="64" viewBox="0 0 171 64" fill="none" xmlns="http://www.w3.org/2000/svg">
<path d="M12.5226 61.7413C12.5226 61.295 12.8896 60.9358 13.3333 60.9358C13.7825 60.9358 14.144 61.3004 14.144 61.7413C14.144 62.1876 13.777 62.5523 13.3333 62.5523C12.8841 62.5523 12.5226 62.1876 12.5226 61.7413ZM11.186 61.0229H8.53463C8.13474 61.0229 7.80606 61.344 7.80606 61.7467C7.80606 62.1441 8.12926 62.4706 8.53463 62.4706H11.186C11.4872 63.3578 12.3363 64 13.3333 64C14.5823 64 15.6012 62.9877 15.6012 61.7467C15.6012 60.5058 14.5823 59.4935 13.3333 59.4935C12.3363 59.488 11.4927 60.1303 11.186 61.0229ZM8.53463 50.0886C8.13474 50.0886 7.80606 50.4097 7.80606 50.8125C7.80606 51.2098 8.12926 51.5364 8.53463 51.5364H19.2714C19.6713 51.5364 20 51.2152 20 50.8125C20 50.4152 19.6768 50.0886 19.2714 50.0886H8.53463ZM36.4338 50.3934C36.4338 49.9471 36.8008 49.5879 37.2445 49.5879C37.6937 49.5879 38.0607 49.9525 38.0607 50.3934C38.0607 50.8397 37.6937 51.2044 37.2445 51.2044C36.8008 51.2044 36.4338 50.8397 36.4338 50.3934ZM34.9821 50.3934C34.9821 50.5621 35.004 50.7308 35.0424 50.8887C31.5146 52.7718 27.0062 53.7297 21.6269 53.7297H12.539C12.1391 53.7297 11.8104 54.0509 11.8104 54.4536C11.8104 54.8509 12.1336 55.1775 12.539 55.1775H21.6269C27.2801 55.1775 32.0459 54.1488 35.7983 52.1242C36.1927 52.4507 36.6967 52.6467 37.25 52.6467C38.499 52.6467 39.5179 51.6343 39.5179 50.3934C39.5179 49.1525 38.499 48.1401 37.25 48.1401C36.001 48.1456 34.9821 49.1525 34.9821 50.3934ZM8.53463 42.8009C8.13474 42.8009 7.80606 43.122 7.80606 43.5248C7.80606 43.9221 8.12926 44.2487 8.53463 44.2487H10.2985C10.6984 44.2487 11.0271 43.9275 11.0271 43.5248C11.0271 43.1275 10.7039 42.8009 10.2985 42.8009H8.53463ZM121.545 44.7494C120.942 45.3481 120.942 46.2788 121.545 46.8775C122.164 47.4761 123.1 47.4761 123.703 46.8775C124.322 46.2788 124.322 45.3481 123.703 44.7494C123.402 44.45 123.018 44.3031 122.629 44.3031C122.246 44.3031 121.857 44.45 121.545 44.7494ZM77.7265 47.155H80.5257V37.7556H77.7265V47.155ZM94.1165 47.155H96.9157V37.7556H94.1165V47.155ZM85.4778 44.0963C85.0067 43.65 84.7821 43.1057 84.7821 42.4526C84.7821 41.7995 85.0067 41.2389 85.4778 40.7926C85.9489 40.3245 86.5131 40.1014 87.1869 40.1014C87.8826 40.1014 88.4632 40.3245 88.9343 40.7926C89.4219 41.2389 89.6684 41.7995 89.6684 42.4526C89.6684 43.1057 89.4219 43.6445 88.9343 44.0963C88.4632 44.5426 87.8826 44.7657 87.1869 44.7657C86.5131 44.7657 85.9489 44.5426 85.4778 44.0963ZM83.3195 39.002C82.4375 39.9326 81.9883 41.0919 81.9883 42.4526C81.9883 43.7969 82.4375 44.9344 83.3195 45.8488C84.2233 46.7632 85.3463 47.2095 86.6829 47.2095C88.0524 47.2095 89.1809 46.7414 89.5753 46.0719V46.2788C89.5753 47.2693 89.2959 47.9605 88.7481 48.3306C88.277 48.6463 87.6196 48.815 86.8144 48.815C85.8174 48.815 84.8642 48.5157 83.9056 47.9224L82.5745 49.9362C83.8344 50.8125 85.3737 51.2588 87.2143 51.2588C88.5838 51.2588 89.7286 50.905 90.6489 50.1757C91.9417 49.1851 92.3033 47.7701 92.3033 45.5876V37.7501H89.5041V38.9802C89.2247 38.1583 88.1127 37.5814 86.6884 37.5814C85.3463 37.5869 84.2233 38.0495 83.3195 39.002ZM108.217 44.1344C107.746 43.6663 107.521 43.1111 107.521 42.458C107.521 41.8049 107.746 41.2443 108.217 40.798C108.688 40.33 109.252 40.1068 109.926 40.1068C110.622 40.1068 111.202 40.33 111.673 40.798C112.161 41.2443 112.407 41.8049 112.407 42.458C112.407 43.1111 112.161 43.6717 111.673 44.1344C111.202 44.5807 110.622 44.8038 109.926 44.8038C109.247 44.8038 108.688 44.5807 108.217 44.1344ZM106.058 39.002C105.176 39.9326 104.727 41.0919 104.727 42.4526C104.727 43.8132 105.176 44.9725 106.058 45.9196C106.962 46.8502 108.085 47.3183 109.422 47.3183C110.846 47.3183 111.958 46.7414 112.237 45.9196V47.1496H115.037V37.7556H112.237V38.9856C111.958 38.1638 110.846 37.5869 109.422 37.5869C108.085 37.5869 106.957 38.0495 106.058 39.002ZM36.2092 39.6224C36.2092 39.1761 36.5762 38.8115 37.0254 38.8115C37.4746 38.8115 37.8361 39.1761 37.8361 39.6224C37.8361 40.0687 37.4691 40.4279 37.0254 40.4279C36.5707 40.4279 36.2092 40.0633 36.2092 39.6224ZM34.752 39.6224C34.752 40.1885 34.9657 40.7055 35.3108 41.0974C34.9493 41.5981 34.5384 42.0825 34.0947 42.5451C31.5803 45.1358 27.6252 46.4475 22.3445 46.4475H5.26978C4.86989 46.4475 4.54121 46.7686 4.54121 47.1714C4.54121 47.5687 4.86441 47.8952 5.26978 47.8952H22.3445C28.0416 47.8952 32.3472 46.4366 35.141 43.552C35.6669 43.0077 36.1434 42.4308 36.5707 41.8321C36.7186 41.8593 36.8665 41.8757 37.0199 41.8757C38.2689 41.8757 39.2878 40.8633 39.2878 39.6224C39.2878 38.3815 38.2689 37.3692 37.0199 37.3692C35.7709 37.3692 34.752 38.3761 34.752 39.6224ZM67.0993 36.765H68.9782C70.5394 36.765 71.6241 37.1188 72.2431 37.81C72.8785 38.5012 73.2017 39.47 73.2017 40.6837C73.2017 43.0731 72.0732 44.5426 68.9946 44.5426H67.0993V36.765ZM64.2069 34.1526V47.155H69.1809C71.4159 47.155 73.125 46.5781 74.3082 45.4025C75.5079 44.2269 76.1105 42.6431 76.1105 40.6837C76.1105 38.7244 75.5079 37.1569 74.2863 35.965C73.0867 34.7513 71.3775 34.1526 69.159 34.1526H64.2069ZM99.4082 34.1526V37.7556H98.1482V40.2755H99.4082V47.1605H102.131V40.2701H104.212V37.7501H102.131V34.1471H99.4082V34.1526ZM116.888 47.155H119.688V34.1526H116.888V47.155ZM77.5183 35.3826C77.5183 36.2589 78.2304 36.9501 79.1124 36.9501C79.9943 36.9501 80.7065 36.2589 80.7065 35.3826C80.7065 34.4846 79.9943 33.7988 79.1124 33.7988C78.2304 33.7988 77.5183 34.49 77.5183 35.3826ZM93.9083 35.3826C93.9083 36.2589 94.6204 36.9501 95.5024 36.9501C96.3843 36.9501 97.0965 36.2589 97.0965 35.3826C97.0965 34.4846 96.3843 33.7988 95.5024 33.7988C94.6204 33.7988 93.9083 34.49 93.9083 35.3826ZM1.60504 58.1002C1.60504 57.6539 1.97206 57.2947 2.41577 57.2947C2.86496 57.2947 3.22651 57.6593 3.22651 58.1002C3.22651 58.541 2.85948 58.9057 2.41577 58.9057C1.96658 58.9057 1.60504 58.5465 1.60504 58.1002ZM48.5565 34.5771C48.1127 41.1627 45.8613 46.3876 41.6707 50.5404C37.0966 55.0795 30.2327 57.3763 21.2654 57.3763H4.56312C4.25636 56.4892 3.41276 55.8469 2.41577 55.8469C1.1668 55.8469 0.147904 56.8593 0.147904 58.1002C0.147904 59.3411 1.1668 60.3534 2.41577 60.3534C3.41276 60.3534 4.25636 59.7112 4.56312 58.8241H21.2708C30.6326 58.8241 37.8471 56.3803 42.7005 51.5636C47.0884 47.2095 49.548 41.5273 50.0081 34.6751C50.0355 34.2777 49.7342 33.9349 49.3288 33.9076C49.3124 33.9076 49.2905 33.9076 49.2741 33.9076C48.8961 33.9022 48.5838 34.1961 48.5565 34.5771ZM30.0191 34.7676C30.0191 34.3213 30.3806 33.9621 30.8298 33.9621C31.279 33.9621 31.6406 34.3267 31.6406 34.7676C31.6406 35.2139 31.2736 35.5731 30.8298 35.5731C30.3806 35.5785 30.0191 35.2139 30.0191 34.7676ZM28.562 34.7676C28.562 35.5241 28.94 36.1936 29.5206 36.6017C29.3727 36.814 29.2139 37.0208 29.0331 37.2222C27.8937 38.5012 25.8887 39.1489 23.0621 39.1489H10.1232C9.72334 39.1489 9.39467 39.47 9.39467 39.8728C9.39467 40.2701 9.71786 40.5966 10.1232 40.5966H23.0621C26.3215 40.5966 28.6989 39.7857 30.1232 38.1801C30.4573 37.8046 30.7422 37.4181 30.9887 37.0099C32.1665 36.9283 33.1032 35.9541 33.1032 34.7676C33.1032 33.5267 32.0843 32.5143 30.8353 32.5143C29.5809 32.5198 28.562 33.5267 28.562 34.7676ZM79.7314 20.2303V25.6022C79.7314 26.7941 79.0357 27.3384 78.0059 27.3384C76.9705 27.3384 76.2803 26.7996 76.2803 25.6022V20.2303H73.4482V25.8471C73.4482 27.1533 73.881 28.1602 74.741 28.8514C75.623 29.5426 76.7131 29.8964 78.0059 29.8964C79.3041 29.8964 80.3888 29.5426 81.2543 28.8514C82.1362 28.1602 82.569 27.1533 82.569 25.8471V20.2303H79.7314ZM125.669 29.6297H128.469V20.2303H125.669V29.6297ZM144.108 21.5148V20.2303H141.309V29.6297H144.108V25.0416C144.108 23.4904 145.045 22.5978 146.644 22.5978C146.984 22.5978 147.302 22.6359 147.581 22.6904V20.0779C147.28 20.0398 147.039 20.0235 146.847 20.0235C145.554 20.0235 144.541 20.5677 144.108 21.5148ZM151.788 21.4059V20.2303H148.989V29.6297H151.788V24.3504C151.788 23.251 152.577 22.4835 153.645 22.4835C154.752 22.4835 155.371 23.153 155.371 24.2578V29.6297H158.17V23.9258C158.17 21.4821 156.855 20.0289 154.544 20.0289C153.251 20.0235 152.183 20.5841 151.788 21.4059ZM135.059 22.2822C136.187 22.2822 137.107 22.9734 137.107 23.8496H132.769C132.84 22.9734 133.837 22.2822 135.059 22.2822ZM131.377 21.3515C130.419 22.2441 129.931 23.4414 129.931 24.9164V24.9926C129.931 26.4676 130.402 27.6432 131.361 28.5358C132.32 29.412 133.558 29.8583 135.113 29.8583C136.707 29.8583 138.082 29.2814 139.189 28.1439L137.557 26.5927C136.899 27.2078 136.132 27.5071 135.245 27.5071C133.76 27.5071 132.785 26.7778 132.73 25.662H139.885C139.907 25.3845 139.923 25.0851 139.923 24.764C139.923 23.4034 139.474 22.2822 138.57 21.3678C137.666 20.4534 136.505 19.9854 135.059 19.9854C133.574 19.9854 132.336 20.4371 131.377 21.3515ZM105.45 26.6853C104.979 26.2172 104.738 25.6239 104.738 24.9327C104.738 24.2415 104.979 23.6646 105.45 23.1965C105.921 22.7121 106.502 22.4672 107.198 22.4672C107.893 22.4672 108.474 22.7121 108.945 23.1965C109.416 23.6646 109.657 24.2415 109.657 24.9327C109.657 25.6239 109.411 26.2009 108.945 26.6853C108.474 27.1533 107.893 27.3928 107.198 27.3928C106.502 27.3928 105.916 27.1479 105.45 26.6853ZM103.402 21.4059C102.427 22.3584 101.939 23.534 101.939 24.9327C101.939 26.3315 102.427 27.5071 103.402 28.4759C104.399 29.4284 105.587 29.9127 107.001 29.9127C108.392 29.9127 109.586 29.4284 110.578 28.4759C111.575 27.5071 112.062 26.3315 112.062 24.9327C112.062 23.534 111.575 22.3584 110.578 21.4059C109.586 20.4371 108.392 19.9527 107.001 19.9527C105.587 19.9473 104.393 20.4371 103.402 21.4059ZM163.051 26.6853C162.58 26.2172 162.339 25.6239 162.339 24.9327C162.339 24.2415 162.585 23.6646 163.051 23.1965C163.522 22.7121 164.103 22.4672 164.798 22.4672C165.494 22.4672 166.075 22.7121 166.546 23.1965C167.017 23.6646 167.258 24.2415 167.258 24.9327C167.258 25.6239 167.011 26.2009 166.546 26.6853C166.075 27.1533 165.494 27.3928 164.798 27.3928C164.103 27.3928 163.522 27.1479 163.051 26.6853ZM161.062 21.4059C160.049 22.3584 159.539 23.534 159.539 24.9327C159.539 26.3315 160.049 27.5071 161.062 28.4759C162.092 29.4284 163.336 29.9127 164.798 29.9127C166.244 29.9127 167.483 29.4284 168.518 28.4759C169.548 27.5071 170.057 26.3315 170.057 24.9327C170.057 23.534 169.553 22.3584 168.518 21.4059C167.483 20.4371 166.244 19.9527 164.798 19.9527C163.336 19.9473 162.098 20.4371 161.062 21.4059ZM1.45165 24.7041C1.45165 24.2578 1.81868 23.8932 2.26787 23.8932C2.71706 23.8932 3.0786 24.2578 3.0786 24.7041C3.0786 25.1504 2.71158 25.5097 2.26787 25.5097C1.81868 25.5097 1.45165 25.145 1.45165 24.7041ZM0 24.7041C0 25.9451 1.0189 26.9574 2.26787 26.9574C3.26485 26.9574 4.10845 26.3152 4.40974 25.428H23.0238C25.823 25.428 27.8444 26.0811 29.0221 27.3601C29.685 28.084 30.1341 28.8895 30.3971 29.8311C30.4847 30.1522 30.7805 30.3645 31.0983 30.3645C31.164 30.3645 31.2243 30.3536 31.29 30.3373C31.6789 30.2339 31.9035 29.8365 31.7994 29.4501C31.4762 28.2854 30.923 27.284 30.0958 26.3859C28.6277 24.7912 26.2448 23.9803 23.0238 23.9803H4.40974C4.10845 23.0931 3.25937 22.4509 2.26787 22.4509C1.0189 22.4509 0 23.4578 0 24.7041ZM23.6154 50.7526C23.6154 50.3063 23.9824 49.9471 24.4261 49.9471C24.8753 49.9471 25.2369 50.3118 25.2369 50.7526C25.2369 51.1935 24.8698 51.5581 24.4261 51.5581C23.9824 51.5636 23.6154 51.1989 23.6154 50.7526ZM39.8027 22.2332C39.4466 22.4128 39.3042 22.8482 39.485 23.2074C40.8106 25.7818 41.457 28.7263 41.457 32.1932C41.457 37.6576 39.8739 41.9138 36.62 45.2066C34.2043 47.6503 30.7915 49.1906 26.4694 49.7947C26.1079 49.0327 25.3245 48.5048 24.4207 48.5048C23.1717 48.5048 22.1528 49.5171 22.1528 50.7581C22.1528 51.999 23.1717 53.0113 24.4207 53.0113C25.5053 53.0113 26.4201 52.2493 26.6337 51.2316C31.2955 50.5893 34.9986 48.9076 37.6499 46.2243C41.1831 42.6485 42.9032 38.0604 42.9032 32.1987C42.9032 28.4922 42.2075 25.3355 40.7668 22.5489C40.6354 22.2985 40.3834 22.157 40.1204 22.157C40.0218 22.1515 39.9068 22.1788 39.8027 22.2332ZM14.4179 43.5248C14.4179 43.0785 14.785 42.7193 15.2287 42.7193C15.6779 42.7193 16.0449 43.0839 16.0449 43.5248C16.0449 43.9711 15.6779 44.3303 15.2287 44.3303C14.785 44.3303 14.4179 43.9656 14.4179 43.5248ZM29.1536 22.0971C28.9673 22.4509 29.0988 22.8863 29.4549 23.0768C30.2547 23.5013 30.9558 24.0293 31.5475 24.6443C33.4154 26.5982 34.2809 29.0093 34.2809 32.2368C34.2809 35.4915 33.4209 37.9189 31.5694 39.8837C29.7452 41.8212 26.7597 42.8009 22.7061 42.8009H17.3815C17.0802 41.9138 16.2311 41.2715 15.2341 41.2715C13.9852 41.2715 12.9663 42.2839 12.9663 43.5248C12.9663 44.7657 13.9852 45.778 15.2341 45.778C16.2311 45.778 17.0747 45.1358 17.3815 44.2487H22.7061C27.1815 44.2487 30.5231 43.1111 32.6321 40.8742C34.752 38.6264 35.7381 35.8833 35.7381 32.2422C35.7381 28.6228 34.7411 25.8961 32.6047 23.6592C31.9035 22.9298 31.0763 22.3039 30.1396 21.8087C30.0301 21.7488 29.915 21.7216 29.8 21.7216C29.537 21.7161 29.2851 21.8576 29.1536 22.0971ZM63.1716 16.6273V19.2397H66.7213V29.6297H69.6137V19.2397H73.1031V16.6273H63.1716ZM117.261 26.6091C116.79 26.141 116.549 25.5804 116.549 24.9327C116.549 24.2796 116.79 23.719 117.261 23.2727C117.748 22.8047 118.329 22.5815 119.025 22.5815C119.698 22.5815 120.263 22.8047 120.734 23.2727C121.205 23.719 121.429 24.2796 121.429 24.9327C121.429 25.5858 121.205 26.1464 120.734 26.6091C120.263 27.0554 119.698 27.2785 119.025 27.2785C118.329 27.2785 117.748 27.0554 117.261 26.6091ZM113.919 16.6273V29.6297H116.718V28.3997C116.998 29.2215 118.11 29.7985 119.534 29.7985C120.865 29.7985 121.994 29.3304 122.876 28.3997C123.78 27.4472 124.229 26.2934 124.229 24.9327C124.229 23.5721 123.78 22.4128 122.876 21.4821C121.994 20.5296 120.865 20.067 119.534 20.067C118.104 20.067 116.998 20.6439 116.718 21.4658V16.6327H113.919V16.6273ZM90.0354 18.3471C88.6659 19.637 87.9867 21.2209 87.9867 23.1421C87.9867 25.0634 88.6604 26.6472 90.0354 27.9371C91.4049 29.2052 93.0592 29.842 95.0313 29.842C97.3046 29.842 99.3698 28.8133 100.591 27.1914V21.9284H94.4506V24.4647H97.8853V26.2172C97.1348 26.8866 96.1762 27.2241 95.0313 27.2241C93.8481 27.2241 92.873 26.8322 92.0622 26.0648C91.2734 25.2811 90.879 24.3123 90.879 23.1367C90.879 21.9611 91.2734 20.9923 92.0787 20.2085C92.8839 19.4248 93.8645 19.0329 95.0258 19.0329C96.3022 19.0329 97.3375 19.4248 98.1428 20.2248L100.093 18.5267C98.7234 17.128 97.0307 16.4204 95.0258 16.4204C93.0592 16.4259 91.4049 17.0572 90.0354 18.3471ZM125.467 17.8627C125.467 18.739 126.179 19.4302 127.061 19.4302C127.943 19.4302 128.655 18.739 128.655 17.8627C128.655 16.9647 127.943 16.2789 127.061 16.2789C126.179 16.2735 125.467 16.9647 125.467 17.8627ZM23.8729 21.0467C23.8729 20.6004 24.2399 20.2412 24.6836 20.2412C25.1328 20.2412 25.4998 20.6058 25.4998 21.0467C25.4998 21.493 25.1328 21.8522 24.6836 21.8522C24.2344 21.8576 23.8729 21.493 23.8729 21.0467ZM22.5746 20.2357H5.26978C4.86989 20.2357 4.54121 20.5568 4.54121 20.9596C4.54121 21.3569 4.86441 21.6835 5.26978 21.6835H22.5143C22.7937 22.6196 23.6592 23.2999 24.6891 23.2999C25.938 23.2999 26.9569 22.2876 26.9569 21.0467C26.9569 19.8058 25.938 18.7934 24.6891 18.7934C23.725 18.7934 22.9033 19.3976 22.5746 20.2357ZM8.53463 16.4966C8.13474 16.4966 7.80606 16.8178 7.80606 17.2205C7.80606 17.6178 8.12926 17.9444 8.53463 17.9444H11.7611C12.161 17.9444 12.4897 17.6233 12.4897 17.2205C12.4897 16.8232 12.1665 16.4966 11.7611 16.4966H8.53463ZM15.8148 17.2205C15.8148 16.7742 16.1818 16.415 16.6255 16.415C17.0747 16.415 17.4363 16.7797 17.4363 17.2205C17.4363 17.6668 17.0693 18.026 16.6255 18.026C16.1818 18.026 15.8148 17.6614 15.8148 17.2205ZM14.3632 17.2205C14.3632 18.4614 15.3821 19.4738 16.631 19.4738C17.628 19.4738 18.4716 18.8315 18.7784 17.9444H22.2952C27.6033 17.9444 31.4543 19.2506 34.0618 21.9284C36.6255 24.5626 37.869 27.9316 37.869 32.215C37.869 33.0259 37.8252 33.8042 37.743 34.5444C37.6992 34.9417 37.984 35.301 38.3839 35.3445C38.4113 35.3499 38.4387 35.3499 38.4661 35.3499C38.8276 35.3499 39.1454 35.0778 39.1892 34.7077C39.2768 33.9185 39.3261 33.0804 39.3261 32.215C39.3261 27.5343 37.9457 23.8442 35.1081 20.9215C32.2541 17.9825 27.943 16.4966 22.2952 16.4966H18.7784C18.4771 15.6095 17.628 14.9673 16.631 14.9673C15.3766 14.9673 14.3632 15.9741 14.3632 17.2205ZM36.2804 18.7009C36.2804 18.2546 36.6474 17.8954 37.0966 17.8954C37.5458 17.8954 37.9128 18.2601 37.9128 18.7009C37.9128 19.1472 37.5458 19.5064 37.0966 19.5064C36.6419 19.5064 36.2804 19.1472 36.2804 18.7009ZM5.26978 12.7521C4.86989 12.7521 4.54121 13.0732 4.54121 13.476C4.54121 13.8787 4.86441 14.1998 5.26978 14.1998H21.9282C27.428 14.1998 31.8214 15.4244 35.004 17.8301C34.889 18.0968 34.8287 18.3907 34.8287 18.7009C34.8287 19.9418 35.8476 20.9542 37.0966 20.9542C38.3456 20.9542 39.3645 19.9418 39.3645 18.7009C39.3645 17.46 38.3456 16.4477 37.0966 16.4477C36.6858 16.4477 36.3023 16.5565 35.9736 16.747C32.5225 14.1019 27.806 12.7521 21.9337 12.7521H5.26978ZM48.4688 29.3032C48.4688 28.8569 48.8358 28.4977 49.2795 28.4977C49.7287 28.4977 50.0958 28.8623 50.0958 29.3032C50.0958 29.7495 49.7287 30.1087 49.2795 30.1087C48.8358 30.1141 48.4688 29.7495 48.4688 29.3032ZM38.2634 10.1614C38.0388 10.4934 38.1265 10.9397 38.4551 11.1629C39.5836 11.9248 40.6408 12.8011 41.594 13.759C45.2861 17.4654 47.4718 21.8957 48.2826 27.284C47.5321 27.6541 47.0172 28.416 47.0172 29.3032C47.0172 30.5441 48.036 31.5564 49.285 31.5564C50.534 31.5564 51.5529 30.5441 51.5529 29.3032C51.5529 28.2092 50.7695 27.3003 49.7287 27.0935C48.8797 21.4549 46.4967 16.6273 42.6348 12.7467C41.6159 11.718 40.4874 10.7873 39.2768 9.97092C39.1508 9.88383 39.0084 9.84574 38.8715 9.84574C38.6304 9.84574 38.4058 9.96003 38.2634 10.1614ZM8.53463 9.01301C8.13474 9.01301 7.80606 9.33413 7.80606 9.73688C7.80606 10.1342 8.12926 10.4608 8.53463 10.4608H19.9342C20.3341 10.4608 20.6628 10.1396 20.6628 9.73688C20.6628 9.33957 20.3396 9.01301 19.9342 9.01301H8.53463ZM24.574 9.91105C24.574 9.46475 24.9411 9.10554 25.3848 9.10554C25.834 9.10554 26.201 9.47019 26.201 9.91105C26.201 10.3573 25.834 10.7166 25.3848 10.7166C24.9356 10.7166 24.574 10.3573 24.574 9.91105ZM23.1169 9.91105C23.1169 11.152 24.1358 12.1643 25.3848 12.1643C26.2777 12.1643 27.0501 11.6472 27.4171 10.9016C32.2705 11.6908 36.1927 13.5631 39.0851 16.4858C43.1004 20.5405 45.0506 25.6729 45.0506 32.1714C45.0506 37.6576 43.7249 42.0988 41.0024 45.7399C40.7613 46.0611 40.8326 46.5128 41.1503 46.7523C41.2818 46.8502 41.4351 46.8938 41.583 46.8938C41.8022 46.8938 42.0213 46.7958 42.1692 46.5999C45.0834 42.703 46.5022 37.9787 46.5022 32.1714C46.5022 25.2756 44.4151 19.8112 40.1204 15.4734C36.998 12.3221 32.7909 10.3029 27.6088 9.47019C27.4007 8.44153 26.4858 7.65779 25.3848 7.65779C24.1358 7.65779 23.1169 8.67012 23.1169 9.91105ZM32.9334 7.97347C32.9334 7.52717 33.3004 7.16796 33.7496 7.16796C34.1988 7.16796 34.5603 7.53261 34.5603 7.97347C34.5603 8.41976 34.1933 8.78442 33.7496 8.78442C33.3004 8.78442 32.9334 8.41976 32.9334 7.97347ZM5.26978 5.27392C4.86989 5.27392 4.54121 5.59503 4.54121 5.99779C4.54121 6.3951 4.86441 6.72166 5.26978 6.72166H21.1941C25.0068 6.72166 28.4579 7.15707 31.4872 8.01157C31.5036 9.23616 32.5116 10.2322 33.7551 10.2322C35.004 10.2322 36.0229 9.21983 36.0229 7.97891C36.0229 6.73799 35.004 5.72566 33.7551 5.72566C33.0101 5.72566 32.3527 6.08487 31.9364 6.63458C28.7701 5.73654 25.1657 5.27392 21.1996 5.27392H5.26978ZM8.53463 1.52938C8.13474 1.52938 7.80606 1.8505 7.80606 2.25325C7.80606 2.65057 8.12926 2.97712 8.53463 2.97712H13.2566C13.6565 2.97712 13.9852 2.65601 13.9852 2.25325C13.9852 1.85594 13.662 1.52938 13.2566 1.52938H8.53463ZM17.0693 2.25325C17.0693 1.80696 17.4363 1.44774 17.88 1.44774C18.3292 1.44774 18.6907 1.8124 18.6907 2.25325C18.6907 2.69955 18.3237 3.05876 17.88 3.05876C17.4308 3.05876 17.0693 2.69955 17.0693 2.25325ZM15.6121 2.25325C15.6121 3.49417 16.631 4.50651 17.88 4.50651C18.877 4.50651 19.7206 3.86427 20.0273 2.97712H20.8271C31.1147 2.97712 38.729 5.6168 44.1084 11.0431C49.5699 16.4694 52.2267 23.3707 52.2267 32.1279C52.2267 41.0266 49.6027 47.9224 44.1905 53.2127C38.9755 58.3941 31.1421 61.0229 20.9093 61.0229H17.88C17.4801 61.0229 17.1514 61.344 17.1514 61.7467C17.1514 62.1441 17.4746 62.4706 17.88 62.4706H20.9093C31.542 62.4706 39.7205 59.7003 45.2149 54.2413C50.8353 48.7388 53.6783 41.3042 53.6783 32.1279C53.6783 23.0931 50.8024 15.6585 45.1382 10.0253C39.5507 4.38677 31.3722 1.52938 20.8271 1.52938H20.0273C19.7206 0.642231 18.877 0 17.88 0C16.631 0 15.6121 1.01233 15.6121 2.25325Z" fill="white"/>
</svg>
